<svg xmlns="http://www.w3.org/2000/svg" xmlns:xlink="http://www.w3.org/1999/xlink" viewBox="0 0 975.46 953.18"><defs><style>.cls-1{fill:url(#linear-gradient);}.cls-2{fill:url(#linear-gradient-2);}.cls-3{fill:#007ab7;}.cls-4{fill:none;stroke-miterlimit:10;stroke:url(#radial-gradient);}.cls-5{fill:url(#linear-gradient-3);}.cls-6{fill:url(#linear-gradient-4);}.cls-7{fill:url(#linear-gradient-5);}.cls-8{fill:url(#linear-gradient-6);}</style><linearGradient id="linear-gradient" y1="554.56" x2="975.46" y2="554.56" gradientUnits="userSpaceOnUse"><stop offset="0" stop-color="aqua"/><stop offset="1" stop-color="#44b6ff"/></linearGradient><linearGradient id="linear-gradient-2" x1="0.02" y1="303.93" x2="975.46" y2="303.93" xlink:href="#linear-gradient"/><radialGradient id="radial-gradient" cx="486.08" cy="666.76" r="242.06" gradientUnits="userSpaceOnUse"><stop offset="0" stop-color="aqua"/><stop offset="1" stop-color="#447ab7"/></radialGradient><linearGradient id="linear-gradient-3" x1="197.29" y1="724.25" x2="796.73" y2="548.27" gradientUnits="userSpaceOnUse"><stop offset="0" stop-color="#3fff9a"/><stop offset="1" stop-color="#41bafd"/></linearGradient><linearGradient id="linear-gradient-4" x1="-1546.84" y1="4940.45" x2="-1389.34" y2="4940.45" gradientTransform="matrix(1.08, 0, 0, 1, 2181.4, -4653.42)" xlink:href="#linear-gradient"/><linearGradient id="linear-gradient-5" x1="-1679.76" y1="4943.14" x2="-1512.67" y2="4943.14" gradientTransform="matrix(1.07, 0, 0, 1, 2120.4, -4653.64)" xlink:href="#linear-gradient"/><linearGradient id="linear-gradient-6" x1="-1270.18" y1="5235.98" x2="-1091.21" y2="5235.98" gradientTransform="matrix(0.97, 0, 0, 0.89, 1647.62, -4448.62)" xlink:href="#linear-gradient"/></defs><title>Houder_lg_01</title><g id="Layer_2" data-name="Layer 2"><g id="Layer_1-2" data-name="Layer 1"><path class="cls-1" d="M491.71,156,0,607.87V953.18H973.87l1.59-340.53ZM848.16,827.47H120.94V662.67l367.58-338,359.64,338Z"/><polygon class="cls-2" points="1.59 0 0.02 607.85 124.16 493.85 127.3 125.71 854.52 125.71 851.36 442.15 975.46 556.95 975.46 0 1.59 0"/><path class="cls-3" d="M486.89,677.8A309.77,309.77,0,0,1,239,554.11l-75.23,69.18c75.49,95.25,192.17,156.35,323.14,156.35,130,0,246-60.25,321.51-154.34l-74.5-70A309.72,309.72,0,0,1,486.89,677.8Z"/><path class="cls-4" d="M486.89,677.8A309.77,309.77,0,0,1,239,554.11l-75.23,69.18c75.49,95.25,192.17,156.35,323.14,156.35,130,0,246-60.25,321.51-154.34l-74.5-70A309.72,309.72,0,0,1,486.89,677.8Z"/><path class="cls-5" d="M486.89,677.8A309.77,309.77,0,0,1,239,554.11l-75.23,69.18c75.49,95.25,192.17,156.35,323.14,156.35,130,0,246-60.25,321.51-154.34l-74.5-70A309.72,309.72,0,0,1,486.89,677.8Z"/><polygon class="cls-6" points="659.97 319.09 489.55 320.72 580.83 241.34 659.97 319.09"/><polygon class="cls-7" points="485.27 323.44 306.66 325.17 402.33 240.96 485.27 323.44"/><polygon class="cls-8" points="574.32 235.51 401.09 237.15 493.86 157.05 574.32 235.51"/></g></g></svg>